<svg width="245" height="158" viewBox="0 0 245 158" fill="none" xmlns="http://www.w3.org/2000/svg">
<path d="M39.8439 0.978672C51.1139 0.978672 60.11 4.1738 66.8344 10.5681C73.5567 16.9604 76.9178 25.6609 76.9178 36.6697C76.9178 43.4568 75.3527 49.6041 72.2223 55.1075C69.092 60.6109 63.7688 65.8672 56.2548 70.8766C64.6921 76.874 70.6896 83.0213 74.2492 89.3164C77.8087 95.6094 79.5885 102.482 79.5885 109.929C79.5885 121.727 75.9621 131.252 68.7134 138.503C61.4626 145.751 51.8388 149.378 39.8439 149.378C27.3853 149.378 17.6319 146.033 10.5795 139.343C3.52719 132.653 0 123.112 0 110.72C0 102.415 1.76359 95.083 5.28876 88.7231C8.81595 82.3612 14.2707 76.8092 21.6511 72.0631C14.7972 66.5921 9.90326 61.0725 6.96934 55.5023C4.03744 49.9341 2.57149 43.6552 2.57149 36.6697C2.57149 25.8593 6.04806 17.2094 13.0012 10.7159C19.9543 4.22442 28.9019 0.978672 39.8439 0.978672ZM25.5083 109.335C25.5083 115.137 26.7111 119.749 29.1165 123.177C31.522 126.605 34.9662 128.318 39.447 128.318C44.3247 128.318 47.9674 126.605 50.3728 123.177C52.7783 119.749 53.981 115.137 53.981 109.335C53.981 105.183 53.0253 101.263 51.1139 97.5714C49.2025 93.8802 45.5113 89.6282 40.0403 84.8173L38.6573 83.4323C34.3729 86.5971 31.1109 90.2052 28.8695 94.2589C26.6281 98.3125 25.5083 103.338 25.5083 109.335ZM39.6455 21.8381C35.8895 21.8381 33.0547 23.2069 31.1433 25.9423C29.2319 28.6778 28.2762 32.5816 28.2762 37.6578C28.2762 42.0071 29.0659 45.7975 30.6493 49.027C32.2307 52.2566 35.2962 55.6845 39.8439 59.3089C44.1931 55.9478 47.1757 52.5866 48.7914 49.2255C50.4052 45.8643 51.2131 42.0071 51.2131 37.6578C51.2131 27.1127 47.3579 21.8381 39.6455 21.8381Z" fill="white"/>
<g filter="url(#filter0_d)">
<path d="M168.967 75.1292C168.967 101.296 165.821 120.211 159.526 131.878C153.231 143.545 143.099 149.378 129.124 149.378C115.15 149.378 105.116 143.511 99.0189 131.779C92.9223 120.047 89.8749 101.164 89.8749 75.1292C89.8749 49.0276 93.0701 30.0776 99.4644 18.2811C105.859 6.48265 115.877 0.582397 129.52 0.582397C143.427 0.582397 153.478 6.35103 159.674 17.8843C165.869 29.4195 168.967 48.5012 168.967 75.1292ZM116.766 75.1292C116.766 95.363 117.639 108.99 119.386 116.01C121.134 123.03 124.444 126.539 129.322 126.539C132.618 126.539 135.172 125.024 136.984 121.991C138.798 118.96 140.098 113.934 140.89 106.914C141.681 99.8945 142.076 89.2987 142.076 75.1292C142.076 55.2235 141.153 41.6452 139.308 34.3965C137.462 27.1457 134.133 23.5193 129.322 23.5193C124.444 23.5193 121.134 27.1295 119.386 34.3458C117.639 41.5642 116.766 55.1567 116.766 75.1292Z" fill="white"/>
<path d="M168.963 75.1292C168.963 101.296 165.817 120.21 159.522 131.876C156.375 137.709 152.269 142.083 147.203 145C142.137 147.916 136.111 149.374 129.124 149.374C122.138 149.374 116.136 147.907 111.12 144.974C106.103 142.041 102.071 137.642 99.0226 131.777C92.9264 120.046 89.8791 101.164 89.8791 75.1292C89.8791 49.0278 93.0742 30.0786 99.468 18.2831C102.665 12.3844 106.768 7.96033 111.776 5.01089C116.785 2.06146 122.699 0.58653 129.52 0.58653C136.473 0.58653 142.462 2.02857 147.486 4.91195C152.511 7.79533 156.572 12.1202 159.67 17.8862C165.865 29.4205 168.963 48.5013 168.963 75.1292ZM116.762 75.1292C116.762 95.3629 117.635 108.99 119.382 116.011C120.256 119.521 121.521 122.154 123.177 123.91C124.834 125.665 126.882 126.543 129.322 126.543C132.62 126.543 135.174 125.027 136.987 121.993C138.802 118.961 140.102 113.935 140.894 106.915C141.685 99.8947 142.08 89.2988 142.08 75.1292C142.08 55.2235 141.157 41.6448 139.312 34.3954C138.389 30.7697 137.095 28.0497 135.43 26.236C133.765 24.4222 131.729 23.5151 129.322 23.5151C126.882 23.5151 124.834 24.4182 123.177 26.2236C121.521 28.0289 120.256 30.7363 119.382 34.3449C117.635 41.5638 116.762 55.1567 116.762 75.1292Z" stroke="black" stroke-width="0.00826446"/>
</g>
<path d="M184.763 23.2722C184.763 27.8523 185.059 31.1892 185.652 33.2828C186.245 35.3744 187.233 36.4212 188.618 36.4212C190.003 36.4212 191.007 35.3744 191.633 33.2828C192.259 31.1892 192.573 27.8523 192.573 23.2722C192.573 18.6922 192.251 15.3553 191.609 13.2617C190.967 11.17 189.969 10.1232 188.618 10.1232C187.233 10.1232 186.245 11.17 185.652 13.2617C185.059 15.3553 184.763 18.6922 184.763 23.2722ZM203.101 23.173C203.101 30.6222 201.858 36.2815 199.37 40.1529C196.881 44.0264 193.265 45.9621 188.519 45.9621C183.609 45.9621 180.001 44.0669 177.692 40.2764C175.386 36.4881 174.232 30.8531 174.232 23.3714C174.232 8.17942 178.994 0.582397 188.519 0.582397C198.242 0.582397 203.101 8.1126 203.101 23.173ZM226.484 52.1417C226.484 56.7218 226.781 60.0587 227.375 62.1523C227.968 64.2439 228.956 65.2907 230.339 65.2907C231.724 65.2907 232.728 64.2439 233.356 62.1523C233.982 60.0587 234.295 56.7218 234.295 52.1417C234.295 47.5596 233.974 44.2329 233.33 42.1555C232.688 40.08 231.692 39.0413 230.339 39.0413C228.988 39.0413 228.008 40.08 227.399 42.1555C226.79 44.2329 226.484 47.5596 226.484 52.1417ZM244.824 52.0425C244.824 59.4897 243.571 65.1429 241.066 68.9981C238.562 72.8533 234.954 74.783 230.242 74.783C225.297 74.783 221.681 72.8959 219.391 69.1217C217.101 65.3474 215.955 59.7205 215.955 52.241C215.955 44.8586 217.133 39.2155 219.49 35.3096C221.845 31.4038 225.429 29.4519 230.242 29.4519C239.963 29.4519 244.824 36.9821 244.824 52.0425ZM229.549 1.62112L199.692 73.8921H189.458L219.217 1.62112H229.549Z" fill="white"/>
<defs>
<filter id="filter0_d" x="85.8749" y="0.582397" width="87.0925" height="156.796" filterUnits="userSpaceOnUse" color-interpolation-filters="sRGB">
<feFlood flood-opacity="0" result="BackgroundImageFix"/>
<feColorMatrix in="SourceAlpha" type="matrix" values="0 0 0 0 0 0 0 0 0 0 0 0 0 0 0 0 0 0 127 0"/>
<feOffset dy="4"/>
<feGaussianBlur stdDeviation="2"/>
<feColorMatrix type="matrix" values="0 0 0 0 0 0 0 0 0 0 0 0 0 0 0 0 0 0 0.25 0"/>
<feBlend mode="normal" in2="BackgroundImageFix" result="effect1_dropShadow"/>
<feBlend mode="normal" in="SourceGraphic" in2="effect1_dropShadow" result="shape"/>
</filter>
</defs>
</svg>
