<svg width="150" height="51" viewBox="0 0 150 51" fill="none" xmlns="http://www.w3.org/2000/svg">
<path d="M138.055 -8.11845e-05H11.9518C11.4921 -8.11845e-05 11.038 -8.11844e-05 10.5796 0.00242583C10.1958 0.00493285 9.81509 0.0122157 9.42764 0.0183454C8.58593 0.0282504 7.74619 0.102301 6.91573 0.239853C6.08644 0.3804 5.28313 0.64537 4.53296 1.0258C3.78372 1.40945 3.09911 1.90797 2.50397 2.50326C1.90571 3.09688 1.40702 3.78303 1.02706 4.53532C0.646059 5.2861 0.38187 6.09064 0.243619 6.92114C0.104055 7.7506 0.028954 8.58962 0.0189907 9.43067C0.0073581 9.81499 0.00612966 10.2006 0 10.585V39.5589C0.00612966 39.9481 0.0073581 40.3252 0.0189907 40.7145C0.0289571 41.5555 0.104058 42.3945 0.243619 43.2239C0.381488 44.0549 0.645693 44.8599 1.02706 45.611C1.40685 46.3608 1.90561 47.0442 2.50397 47.6345C3.09685 48.2325 3.7819 48.7313 4.53296 49.112C5.28312 49.4935 6.08635 49.76 6.91573 49.9027C7.74633 50.0392 8.58598 50.1133 9.42764 50.1244C9.81509 50.1329 10.1958 50.1378 10.5796 50.1378C11.038 50.1403 11.4922 50.1403 11.9518 50.1403H138.055C138.505 50.1403 138.963 50.1403 139.414 50.1378C139.796 50.1378 140.187 50.1329 140.569 50.1244C141.409 50.1139 142.247 50.0398 143.076 49.9027C143.908 49.759 144.715 49.4925 145.468 49.112C146.219 48.7311 146.903 48.2323 147.495 47.6345C148.092 47.0419 148.592 46.359 148.977 45.611C149.355 44.8594 149.617 44.0544 149.753 43.2239C149.892 42.3944 149.97 41.5556 149.985 40.7145C149.99 40.3252 149.99 39.9481 149.99 39.5589C150 39.1035 150 38.6506 150 38.1878V11.9535C150 11.4945 150 11.0391 149.99 10.585C149.99 10.2006 149.99 9.81499 149.985 9.43062C149.97 8.58949 149.892 7.75066 149.753 6.92109C149.616 6.09107 149.355 5.2866 148.977 4.53526C148.203 3.02739 146.976 1.79999 145.468 1.02569C144.715 0.646187 143.908 0.381287 143.076 0.23974C142.248 0.101582 141.409 0.0275057 140.569 0.0181699C140.187 0.0120528 139.796 0.00470722 139.414 0.00226288C138.963 -0.000244141 138.505 -0.000244141 138.055 -0.000244141V-8.11845e-05Z" fill="#A6A6A6"/>
<path d="M10.5857 49.0434C10.2038 49.0434 9.83106 49.0385 9.45214 49.03C8.66717 49.0198 7.88403 48.9514 7.10916 48.8255C6.38662 48.7011 5.68668 48.4696 5.03242 48.1387C4.38415 47.8106 3.79289 47.3803 3.28126 46.8644C2.76224 46.3546 2.33012 45.7633 2.00205 45.1139C1.67035 44.4603 1.4408 43.7597 1.32139 43.0366C1.19243 42.2596 1.12266 41.4739 1.11268 40.6863C1.10473 40.4219 1.09433 39.5417 1.09433 39.5417V10.5849C1.09433 10.5849 1.10541 9.71823 1.11274 9.4636C1.1223 8.67725 1.19167 7.89277 1.32024 7.11695C1.43987 6.39182 1.6696 5.68922 2.00147 5.03349C2.32834 4.38456 2.75806 3.7928 3.27396 3.28115C3.78928 2.76463 4.38244 2.33214 5.0318 1.99947C5.68456 1.66965 6.38318 1.43981 7.10425 1.31764C7.88168 1.19049 8.66753 1.12174 9.45522 1.11199L10.5863 1.09668H139.408L140.552 1.1126C141.333 1.12187 142.111 1.19 142.882 1.31641C143.61 1.44011 144.316 1.67156 144.976 2.00314C146.277 2.67358 147.336 3.73427 148.003 5.03655C148.33 5.68775 148.556 6.38462 148.674 7.10348C148.804 7.88567 148.877 8.67632 148.892 9.46912C148.896 9.82411 148.896 10.2054 148.896 10.5849C148.906 11.055 148.906 11.5024 148.906 11.9535V38.1878C148.906 38.6432 148.906 39.0875 148.896 39.5355C148.896 39.9432 148.896 40.3166 148.891 40.7009C148.876 41.4796 148.805 42.2561 148.677 43.0243C148.56 43.7527 148.331 44.4587 148 45.1177C147.669 45.76 147.24 46.3462 146.727 46.8547C146.215 47.3733 145.622 47.8061 144.973 48.1364C144.314 48.4698 143.609 48.7021 142.882 48.8255C142.107 48.9521 141.324 49.0204 140.539 49.03C140.171 49.0385 139.787 49.0434 139.414 49.0434L138.055 49.0459L10.5857 49.0434Z" fill="black"/>
<path d="M31.048 25.4469C31.0615 24.4007 31.3394 23.3748 31.8559 22.4648C32.3724 21.5549 33.1106 20.7903 34.002 20.2423C33.4357 19.4336 32.6887 18.768 31.8202 18.2985C30.9518 17.829 29.9858 17.5685 28.999 17.5376C26.8941 17.3167 24.8534 18.7972 23.7808 18.7972C22.6874 18.7972 21.0359 17.5596 19.2575 17.5961C18.1072 17.6333 16.9861 17.9678 16.0035 18.5671C15.0209 19.1663 14.2103 20.0099 13.6507 21.0156C11.2264 25.2128 13.0347 31.3814 15.3569 34.7742C16.5188 36.4355 17.8767 38.2913 19.6535 38.2255C21.3922 38.1533 22.0416 37.1168 24.1403 37.1168C26.2196 37.1168 26.8288 38.2255 28.6417 38.1836C30.5074 38.1533 31.6828 36.5149 32.804 34.8378C33.6388 33.6541 34.2812 32.3457 34.7073 30.9613C33.6234 30.5029 32.6984 29.7355 32.0477 28.7549C31.397 27.7743 31.0493 26.6238 31.048 25.4469Z" fill="white"/>
<path d="M27.6239 15.3064C28.6412 14.0853 29.1423 12.5156 29.021 10.9309C27.4668 11.0941 26.0312 11.8369 25.0002 13.0112C24.4962 13.5849 24.1101 14.2523 23.8641 14.9753C23.6181 15.6983 23.517 16.4627 23.5666 17.2248C24.3439 17.2328 25.113 17.0643 25.8158 16.732C26.5186 16.3997 27.1368 15.9123 27.6239 15.3064Z" fill="white"/>
<path d="M53.0263 34.0199H47.0929L45.668 38.2272H43.1549L48.7749 22.6611H51.386L57.0059 38.2272H54.4499L53.0263 34.0199ZM47.7074 32.0784H52.4106L50.0921 25.2502H50.0272L47.7074 32.0784Z" fill="white"/>
<path d="M69.1432 32.5535C69.1432 36.0802 67.2556 38.3461 64.407 38.3461C63.6854 38.3838 62.9678 38.2176 62.3363 37.8664C61.7048 37.5153 61.1849 36.9934 60.8362 36.3605H60.7823V41.9817H58.4528V26.8784H60.7077V28.766H60.7506C61.1153 28.1362 61.6439 27.617 62.2802 27.2637C62.9165 26.9104 63.6367 26.7362 64.3642 26.7597C67.2445 26.7597 69.1432 29.0365 69.1432 32.5535ZM66.7488 32.5535C66.7488 30.2558 65.5614 28.7452 63.7497 28.7452C61.9698 28.7452 60.7726 30.2876 60.7726 32.5535C60.7726 34.8402 61.9698 36.3715 63.7497 36.3715C65.5614 36.3715 66.7488 34.872 66.7488 32.5535Z" fill="white"/>
<path d="M81.6342 32.5535C81.6342 36.0802 79.7466 38.346 76.898 38.346C76.1764 38.3838 75.4588 38.2176 74.8273 37.8664C74.1958 37.5153 73.6759 36.9934 73.3272 36.3605H73.2733V41.9817H70.9438V26.8784H73.1987V28.766H73.2415C73.6062 28.1362 74.1349 27.617 74.7712 27.2637C75.4075 26.9104 76.1277 26.7362 76.8551 26.7597C79.7356 26.7597 81.6342 29.0365 81.6342 32.5535ZM79.2398 32.5535C79.2398 30.2558 78.0524 28.7452 76.2407 28.7452C74.4608 28.7452 73.2636 30.2876 73.2636 32.5535C73.2636 34.8401 74.4608 36.3715 76.2407 36.3715C78.0524 36.3715 79.2398 34.872 79.2398 32.5535H79.2398Z" fill="white"/>
<path d="M89.8897 33.8901C90.0623 35.4338 91.5619 36.4473 93.6111 36.4473C95.5746 36.4473 96.9872 35.4337 96.9872 34.0419C96.9872 32.8337 96.1352 32.1102 94.1179 31.6144L92.1005 31.1284C89.2422 30.438 87.9152 29.1013 87.9152 26.9321C87.9152 24.2464 90.2558 22.4016 93.5793 22.4016C96.8685 22.4016 99.1234 24.2464 99.1993 26.9321H96.8477C96.7069 25.3787 95.4228 24.441 93.5462 24.441C91.6696 24.441 90.3855 25.3897 90.3855 26.7705C90.3855 27.871 91.2057 28.5186 93.212 29.0143L94.927 29.4354C98.1208 30.1907 99.4477 31.4736 99.4477 33.7505C99.4477 36.6627 97.128 38.4866 93.4385 38.4866C89.9864 38.4866 87.6557 36.7055 87.5051 33.89L89.8897 33.8901Z" fill="white"/>
<path d="M104.475 24.1926V26.8784H106.633V28.7231H104.475V34.9797C104.475 35.9516 104.907 36.4046 105.856 36.4046C106.112 36.4001 106.368 36.3821 106.622 36.3506V38.1844C106.196 38.2641 105.762 38.3002 105.328 38.2921C103.031 38.2921 102.135 37.4291 102.135 35.2281V28.7231H100.485V26.8784H102.135V24.1926H104.475Z" fill="white"/>
<path d="M107.883 32.5534C107.883 28.9826 109.986 26.7388 113.266 26.7388C116.556 26.7388 118.649 28.9826 118.649 32.5534C118.649 36.134 116.567 38.368 113.266 38.368C109.965 38.368 107.883 36.134 107.883 32.5534ZM116.276 32.5534C116.276 30.1039 115.153 28.6582 113.266 28.6582C111.378 28.6582 110.257 30.1149 110.257 32.5534C110.257 35.0127 111.378 36.4473 113.266 36.4473C115.153 36.4473 116.276 35.0127 116.276 32.5534H116.276Z" fill="white"/>
<path d="M120.57 26.8783H122.792V28.81H122.846C122.996 28.2067 123.35 27.6735 123.847 27.3001C124.344 26.9267 124.954 26.7358 125.576 26.7595C125.844 26.7586 126.112 26.7878 126.374 26.8465V29.0254C126.035 28.9218 125.681 28.8743 125.327 28.8846C124.989 28.8709 124.651 28.9306 124.338 29.0595C124.025 29.1885 123.743 29.3837 123.513 29.6318C123.282 29.8798 123.108 30.1749 123.002 30.4966C122.896 30.8183 122.861 31.1592 122.9 31.4957V38.2272H120.57L120.57 26.8783Z" fill="white"/>
<path d="M137.114 34.8939C136.801 36.9541 134.795 38.368 132.228 38.368C128.926 38.368 126.877 36.156 126.877 32.6072C126.877 29.0475 128.937 26.7388 132.13 26.7388C135.269 26.7388 137.244 28.8957 137.244 32.3367V33.1348H129.228V33.2756C129.191 33.6933 129.244 34.114 129.382 34.51C129.52 34.9059 129.741 35.2679 130.029 35.5719C130.318 35.8759 130.668 36.1151 131.057 36.2734C131.445 36.4317 131.862 36.5056 132.281 36.4902C132.832 36.5418 133.384 36.4143 133.857 36.1267C134.329 35.8391 134.695 35.4067 134.902 34.8939L137.114 34.8939ZM129.239 31.5068H134.913C134.934 31.1312 134.877 30.7554 134.746 30.4029C134.615 30.0504 134.412 29.7288 134.151 29.4584C133.889 29.1879 133.575 28.9744 133.227 28.8312C132.879 28.688 132.506 28.6183 132.13 28.6264C131.75 28.6241 131.374 28.697 131.023 28.8408C130.672 28.9847 130.353 29.1966 130.084 29.4644C129.816 29.7322 129.603 30.0505 129.458 30.4011C129.313 30.7516 129.238 31.1274 129.239 31.5068V31.5068Z" fill="white"/>
<path d="M47.4155 10.9443C47.9039 10.9092 48.3939 10.983 48.8504 11.1603C49.3068 11.3376 49.7182 11.614 50.0548 11.9695C50.3915 12.325 50.6451 12.7508 50.7973 13.2162C50.9494 13.6816 50.9964 14.175 50.9349 14.6607C50.9349 17.0502 49.6434 18.4238 47.4155 18.4238H44.7138V10.9443H47.4155ZM45.8755 17.366H47.2857C47.6347 17.3869 47.9839 17.3296 48.308 17.1985C48.6321 17.0674 48.9229 16.8656 49.1592 16.6079C49.3954 16.3503 49.5713 16.0431 49.6739 15.7089C49.7765 15.3747 49.8033 15.0218 49.7523 14.676C49.7996 14.3315 49.7701 13.9808 49.6659 13.649C49.5617 13.3173 49.3854 13.0126 49.1497 12.757C48.9139 12.5014 48.6246 12.3011 48.3023 12.1704C47.9801 12.0397 47.6329 11.982 47.2857 12.0013H45.8755V17.366Z" fill="white"/>
<path d="M52.2471 15.5988C52.2116 15.2279 52.2541 14.8536 52.3717 14.5001C52.4893 14.1465 52.6796 13.8214 52.9302 13.5457C53.1808 13.2699 53.4863 13.0496 53.8271 12.8988C54.1678 12.748 54.5364 12.6702 54.909 12.6702C55.2816 12.6702 55.6501 12.748 55.9909 12.8988C56.3317 13.0496 56.6372 13.2699 56.8878 13.5457C57.1384 13.8214 57.3287 14.1465 57.4463 14.5001C57.5639 14.8536 57.6063 15.2279 57.5709 15.5988C57.607 15.9702 57.5651 16.3449 57.4478 16.6991C57.3305 17.0532 57.1403 17.3789 56.8896 17.6552C56.639 17.9315 56.3332 18.1523 55.9921 18.3034C55.651 18.4545 55.2821 18.5325 54.909 18.5325C54.5359 18.5325 54.167 18.4545 53.8259 18.3034C53.4848 18.1523 53.179 17.9315 52.9283 17.6552C52.6776 17.3789 52.4875 17.0532 52.3702 16.6991C52.2529 16.3449 52.211 15.9702 52.2471 15.5988ZM56.4251 15.5988C56.4251 14.3753 55.8754 13.6598 54.9108 13.6598C53.9425 13.6598 53.3978 14.3753 53.3978 15.5989C53.3978 16.8322 53.9426 17.5422 54.9108 17.5422C55.8755 17.5421 56.4251 16.8273 56.4251 15.5988H56.4251Z" fill="white"/>
<path d="M64.6476 18.4235H63.492L62.3254 14.2664H62.2373L61.0756 18.4235H59.931L58.3751 12.7791H59.505L60.5161 17.0861H60.5994L61.7598 12.7791H62.8285L63.989 17.0861H64.0771L65.0834 12.7791H66.1973L64.6476 18.4235Z" fill="white"/>
<path d="M67.5059 12.7791H68.5782V13.6757H68.6615C68.8027 13.3537 69.0409 13.0837 69.3428 12.9034C69.6447 12.7232 69.9954 12.6416 70.3459 12.6701C70.6205 12.6495 70.8963 12.6909 71.1528 12.7913C71.4092 12.8917 71.6398 13.0485 71.8274 13.2501C72.0151 13.4517 72.1549 13.693 72.2367 13.956C72.3184 14.219 72.3399 14.497 72.2996 14.7695V18.4235H71.1856V15.0492C71.1856 14.1421 70.7915 13.691 69.9676 13.691C69.7812 13.6824 69.595 13.7141 69.422 13.7841C69.2489 13.8541 69.093 13.9606 68.965 14.0965C68.837 14.2324 68.7399 14.3943 68.6803 14.5712C68.6207 14.7481 68.6001 14.9358 68.6198 15.1214V18.4235H67.5059L67.5059 12.7791Z" fill="white"/>
<path d="M74.0746 10.5757H75.1886V18.4236H74.0746V10.5757Z" fill="white"/>
<path d="M76.737 15.5989C76.7016 15.228 76.7441 14.8537 76.8617 14.5001C76.9794 14.1465 77.1696 13.8214 77.4203 13.5457C77.6709 13.2699 77.9765 13.0496 78.3172 12.8988C78.658 12.748 79.0266 12.6702 79.3992 12.6702C79.7719 12.6702 80.1404 12.748 80.4812 12.8988C80.822 13.0496 81.1275 13.2699 81.3782 13.5457C81.6288 13.8214 81.8191 14.1465 81.9367 14.5001C82.0544 14.8537 82.0969 15.228 82.0614 15.5989C82.0975 15.9703 82.0556 16.3451 81.9382 16.6992C81.8208 17.0533 81.6307 17.379 81.38 17.6553C81.1293 17.9316 80.8235 18.1524 80.4824 18.3035C80.1413 18.4545 79.7723 18.5326 79.3992 18.5326C79.0261 18.5326 78.6572 18.4545 78.3161 18.3035C77.9749 18.1524 77.6692 17.9316 77.4185 17.6553C77.1678 17.379 76.9776 17.0533 76.8603 16.6992C76.7429 16.3451 76.7009 15.9703 76.737 15.5989ZM80.915 15.5989C80.915 14.3754 80.3654 13.6599 79.4008 13.6599C78.4325 13.6599 77.8878 14.3754 77.8878 15.599C77.8878 16.8323 78.4325 17.5423 79.4008 17.5423C80.3654 17.5422 80.915 16.8274 80.915 15.5989H80.915Z" fill="white"/>
<path d="M83.2341 16.8273C83.2341 15.8113 83.9906 15.2255 85.3335 15.1423L86.8625 15.0542V14.567C86.8625 13.9708 86.4683 13.6342 85.7069 13.6342C85.085 13.6342 84.6541 13.8625 84.5305 14.2615H83.452C83.5659 13.292 84.4779 12.6702 85.7583 12.6702C87.1734 12.6702 87.9715 13.3746 87.9715 14.567V18.4236H86.8992V17.6303H86.811C86.6321 17.9149 86.3809 18.1468 86.0831 18.3025C85.7852 18.4582 85.4514 18.5321 85.1156 18.5166C84.8787 18.5412 84.6392 18.5159 84.4126 18.4424C84.186 18.3688 83.9773 18.2485 83.8001 18.0894C83.6228 17.9302 83.4809 17.7357 83.3834 17.5183C83.2859 17.3009 83.2351 17.0655 83.2341 16.8273ZM86.8625 16.345V15.8731L85.4841 15.9612C84.7068 16.0133 84.3542 16.2777 84.3542 16.7753C84.3542 17.2833 84.7949 17.5789 85.4009 17.5789C85.5784 17.5969 85.7578 17.579 85.9283 17.5262C86.0988 17.4734 86.2569 17.3869 86.3933 17.2718C86.5296 17.1567 86.6414 17.0153 86.722 16.8561C86.8026 16.6969 86.8504 16.523 86.8625 16.345Z" fill="white"/>
<path d="M89.4356 15.5989C89.4356 13.8154 90.3525 12.6855 91.7786 12.6855C92.1313 12.6692 92.4814 12.7537 92.7879 12.9291C93.0944 13.1044 93.3447 13.3634 93.5095 13.6758H93.5927V10.5757H94.7067V18.4236H93.6392V17.5318H93.5511C93.3736 17.842 93.1146 18.0978 92.8022 18.2714C92.4897 18.445 92.1358 18.5298 91.7786 18.5166C90.3427 18.5167 89.4356 17.3868 89.4356 15.5989ZM90.5863 15.5989C90.5863 16.7961 91.1506 17.5165 92.0944 17.5165C93.0333 17.5165 93.6136 16.7857 93.6136 15.6038C93.6136 14.4274 93.0272 13.6862 92.0944 13.6862C91.1567 13.6862 90.5863 14.4115 90.5863 15.5989H90.5863Z" fill="white"/>
<path d="M99.3155 15.5988C99.2801 15.2279 99.3225 14.8536 99.4401 14.5001C99.5577 14.1465 99.748 13.8214 99.9986 13.5457C100.249 13.2699 100.555 13.0496 100.895 12.8988C101.236 12.748 101.605 12.6702 101.977 12.6702C102.35 12.6702 102.719 12.748 103.059 12.8988C103.4 13.0496 103.706 13.2699 103.956 13.5457C104.207 13.8214 104.397 14.1465 104.515 14.5001C104.632 14.8536 104.675 15.2279 104.639 15.5988C104.675 15.9702 104.634 16.3449 104.516 16.6991C104.399 17.0532 104.209 17.3789 103.958 17.6552C103.707 17.9315 103.402 18.1523 103.061 18.3034C102.719 18.4545 102.35 18.5325 101.977 18.5325C101.604 18.5325 101.235 18.4545 100.894 18.3034C100.553 18.1523 100.247 17.9315 99.9967 17.6552C99.7461 17.3789 99.5559 17.0532 99.4386 16.6991C99.3213 16.3449 99.2794 15.9702 99.3155 15.5988ZM103.493 15.5988C103.493 14.3753 102.944 13.6598 101.979 13.6598C101.011 13.6598 100.466 14.3753 100.466 15.5989C100.466 16.8322 101.011 17.5422 101.979 17.5422C102.944 17.5421 103.493 16.8273 103.493 15.5988Z" fill="white"/>
<path d="M106.134 12.7791H107.206V13.6757H107.29C107.431 13.3537 107.669 13.0837 107.971 12.9034C108.273 12.7232 108.623 12.6416 108.974 12.6701C109.249 12.6495 109.524 12.6909 109.781 12.7913C110.037 12.8917 110.268 13.0485 110.456 13.2501C110.643 13.4517 110.783 13.693 110.865 13.956C110.946 14.219 110.968 14.497 110.928 14.7695V18.4235H109.814V15.0492C109.814 14.1421 109.42 13.691 108.596 13.691C108.409 13.6824 108.223 13.7141 108.05 13.7841C107.877 13.8541 107.721 13.9606 107.593 14.0965C107.465 14.2324 107.368 14.3943 107.308 14.5712C107.249 14.7481 107.228 14.9358 107.248 15.1214V18.4235H106.134V12.7791Z" fill="white"/>
<path d="M117.222 11.3738V12.8048H118.445V13.7431H117.222V16.6455C117.222 17.2368 117.466 17.4957 118.02 17.4957C118.162 17.4952 118.304 17.4866 118.445 17.4699V18.3978C118.245 18.4336 118.042 18.4527 117.839 18.4548C116.6 18.4548 116.107 18.019 116.107 16.9307V13.743H115.211V12.8047H116.107V11.3738H117.222Z" fill="white"/>
<path d="M119.967 10.5757H121.071V13.6862H121.159C121.307 13.3611 121.552 13.0896 121.86 12.9087C122.168 12.7278 122.524 12.6462 122.88 12.6751C123.153 12.6602 123.426 12.7058 123.68 12.8087C123.933 12.9115 124.161 13.069 124.347 13.27C124.533 13.471 124.672 13.7105 124.754 13.9714C124.836 14.2323 124.86 14.5082 124.824 14.7794V18.4236H123.709V15.0542C123.709 14.1526 123.289 13.696 122.502 13.696C122.31 13.6803 122.118 13.7066 121.938 13.7731C121.757 13.8396 121.594 13.9447 121.458 14.081C121.323 14.2173 121.219 14.3815 121.154 14.5622C121.089 14.7429 121.064 14.9356 121.081 15.127V18.4236H119.967L119.967 10.5757Z" fill="white"/>
<path d="M131.319 16.8996C131.168 17.4155 130.84 17.8617 130.393 18.1602C129.946 18.4588 129.408 18.5906 128.873 18.5326C128.502 18.5424 128.132 18.4712 127.79 18.3239C127.449 18.1766 127.143 17.9567 126.895 17.6795C126.647 17.4023 126.462 17.0744 126.354 16.7186C126.245 16.3629 126.215 15.9877 126.266 15.6192C126.216 15.2495 126.247 14.8736 126.355 14.5167C126.464 14.1599 126.648 13.8305 126.894 13.5509C127.141 13.2713 127.445 13.0479 127.786 12.896C128.126 12.7441 128.496 12.6671 128.868 12.6703C130.439 12.6703 131.387 13.7433 131.387 15.5157V15.9044H127.401V15.9669C127.383 16.174 127.409 16.3825 127.477 16.579C127.545 16.7755 127.653 16.9556 127.795 17.1078C127.936 17.2601 128.108 17.3811 128.299 17.4631C128.49 17.545 128.696 17.5862 128.904 17.5839C129.17 17.6159 129.44 17.5679 129.68 17.446C129.919 17.3242 130.116 17.134 130.247 16.8996L131.319 16.8996ZM127.401 15.0806H130.252C130.266 14.8911 130.24 14.7008 130.176 14.522C130.112 14.3431 130.012 14.1795 129.881 14.0418C129.75 13.9041 129.592 13.7953 129.416 13.7223C129.241 13.6494 129.052 13.614 128.862 13.6184C128.67 13.6159 128.478 13.6521 128.3 13.7247C128.122 13.7974 127.959 13.905 127.823 14.0413C127.687 14.1775 127.579 14.3397 127.507 14.5182C127.434 14.6967 127.398 14.8879 127.401 15.0806H127.401Z" fill="white"/>
</svg>
