<svg width="32" height="32" viewBox="0 0 32 32" fill="none" xmlns="http://www.w3.org/2000/svg">
<path d="M18.0644 15.1405C18.1217 15.4434 18.1626 15.7462 18.1626 16.1391C18.1626 19.5689 15.8625 22 12.4 22C9.08487 22 6.39999 19.3152 6.39999 16C6.39999 12.6848 9.08487 10 12.4 10C14.0208 10 15.3713 10.5893 16.4191 11.5716L14.7902 13.1351C14.3481 12.7094 13.5705 12.2101 12.4 12.2101C10.3536 12.2101 8.68375 13.9045 8.68375 16C8.68375 18.0955 10.3536 19.7899 12.4 19.7899C14.7738 19.7899 15.666 18.0791 15.8052 17.2032H12.4V15.1405H18.0644V15.1405ZM23.8584 15.3417V13.6H22.1083V15.3417H20.3667V17.0917H22.1083V18.8333H23.8584V17.0917H25.6V15.3417H23.8584Z" fill="#828282"/>
<circle cx="16" cy="16" r="15.5" stroke="#828282"/>
</svg>
