<svg width="150" height="51" viewBox="0 0 150 51" fill="none" xmlns="http://www.w3.org/2000/svg">
<path d="M144.058 50.9878H5.54167C2.49444 50.9878 0 48.1739 0 44.7378V7.23779C0 3.7989 2.49444 0.987793 5.54167 0.987793H144.058C147.106 0.987793 149.6 3.7989 149.6 7.23779V44.7378C149.6 48.1739 147.106 50.9878 144.058 50.9878Z" fill="black"/>
<path d="M144.058 0.987793H5.54167C2.49444 0.987793 0 3.80168 0 7.23779V44.7378C0 48.1739 2.49444 50.9878 5.54167 50.9878H144.058C147.106 50.9878 149.6 48.1739 149.6 44.7378V7.23779C149.6 3.80168 147.106 0.987793 144.058 0.987793ZM144.058 1.98779C146.625 1.98779 148.714 4.34335 148.714 7.23779V44.7378C148.714 47.6322 146.625 49.9878 144.058 49.9878H5.54167C2.975 49.9878 0.886111 47.6322 0.886111 44.7378V7.23779C0.886111 4.34335 2.975 1.98779 5.54167 1.98779H144.058Z" fill="#A6A6A6"/>
<path d="M52.5472 14.6932C52.5472 15.621 52.2722 16.3598 51.7195 16.9126C51.0945 17.5682 50.2806 17.896 49.2778 17.896C48.3195 17.896 47.5028 17.5626 46.8306 16.8987C46.1583 16.2321 45.825 15.4071 45.825 14.4237C45.825 13.4376 46.1583 12.6154 46.8306 11.9487C47.5028 11.2821 48.3195 10.9487 49.2778 10.9487C49.7528 10.9487 50.2111 11.0432 50.6417 11.2293C51.075 11.4154 51.4222 11.6626 51.6833 11.971L51.0972 12.5571C50.6583 12.0293 50.0528 11.7682 49.2778 11.7682C48.5778 11.7682 47.9722 12.0126 47.4611 12.5071C46.95 12.9987 46.6972 13.6376 46.6972 14.4237C46.6972 15.2098 46.95 15.8487 47.4611 16.3404C47.9722 16.8321 48.5778 17.0793 49.2778 17.0793C50.0195 17.0793 50.6389 16.8321 51.1361 16.3376C51.4556 16.0154 51.6417 15.5654 51.6917 14.9904H49.2778V14.1904H52.5C52.5306 14.3654 52.5472 14.5321 52.5472 14.6932Z" fill="white"/>
<path d="M52.5473 14.728H52.4362C52.4334 15.6364 52.1696 16.3391 51.6418 16.8697V16.8725C51.0334 17.503 50.2557 17.8197 49.2779 17.8197C48.3446 17.8197 47.5612 17.5003 46.9084 16.8558C46.2584 16.2086 45.9362 15.4169 45.9362 14.4586C45.9362 13.4975 46.2584 12.7086 46.9084 12.0614C47.5612 11.4169 48.3446 11.0975 49.2779 11.0947C49.739 11.0947 50.1779 11.1864 50.6001 11.3669C51.0196 11.5475 51.3501 11.7836 51.5973 12.078L51.6834 12.0058L51.6057 11.928L51.0196 12.5142L51.0973 12.5919L51.1834 12.5197C50.7223 11.9669 50.0751 11.6891 49.2779 11.6919C48.5501 11.6919 47.914 11.9503 47.3862 12.4614C46.8529 12.9753 46.5834 13.6503 46.5862 14.4586C46.5834 15.2669 46.8529 15.9419 47.3862 16.4558C47.914 16.9669 48.5501 17.2253 49.2779 17.2253C50.0446 17.2253 50.7001 16.9669 51.214 16.4503C51.5557 16.1058 51.7529 15.628 51.8029 15.0336L51.814 14.9141H49.389V14.3364H52.5001V14.2253L52.3918 14.2475C52.4223 14.4142 52.4362 14.5725 52.4362 14.728H52.6584C52.6584 14.5586 52.6418 14.3864 52.6084 14.2058L52.5918 14.1141H49.1668V15.1364H51.6918V15.0253L51.5834 15.0142C51.5334 15.5725 51.3557 15.9919 51.0557 16.2919C50.5807 16.7669 49.9973 17.003 49.2779 17.003C48.6029 17.003 48.0334 16.7697 47.539 16.2975C47.0501 15.8253 46.8084 15.2225 46.8084 14.4586C46.8084 13.6947 47.0501 13.0919 47.539 12.6197C48.0334 12.1475 48.6029 11.9141 49.2779 11.9141C50.0279 11.9141 50.5918 12.1641 51.014 12.6614L51.0918 12.7558L51.7612 12.0864L51.8334 12.0141L51.7668 11.9364C51.4946 11.6114 51.1334 11.353 50.6862 11.1614C50.239 10.9697 49.7668 10.8753 49.2779 10.8753C48.2918 10.8725 47.4418 11.2197 46.7529 11.9058C46.0612 12.5891 45.7112 13.4475 45.714 14.4586C45.7112 15.4669 46.0612 16.328 46.7529 17.0114C47.4418 17.6975 48.2946 18.0419 49.2779 18.0419C50.3029 18.0419 51.1557 17.703 51.8001 17.0253L51.7196 16.9475L51.8001 17.0253C52.3723 16.453 52.6584 15.678 52.6584 14.728H52.5473Z" fill="white"/>
<path d="M57.6529 11.9483H54.6251V14.0566H57.3557V14.8566H54.6251V16.9649H57.6529V17.7816H53.7723V11.1316H57.6529V11.9483Z" fill="white"/>
<path d="M57.6527 11.9495V11.8384H54.5166V14.1689H57.2444V14.7467H54.5166V17.0745H57.5416V17.6717H53.8833V11.244H57.5416V11.9495H57.6527V11.8384V11.9495H57.7639V11.1328V11.0217H53.6611V17.8912H57.7639V16.9662V16.8551H54.7361V14.9689H57.4666V14.0578V13.9467H54.7361V12.0606H57.7639V11.9495H57.6527Z" fill="white"/>
<path d="M61.2557 17.7816H60.4029V11.9483H58.5446V11.1316H63.114V11.9483H61.2557V17.7816Z" fill="white"/>
<path d="M61.2554 17.7828V17.6717H60.5138V11.8384H58.6554V11.244H63.0027V11.8384H61.1443V17.7828H61.2554V17.6717V17.7828H61.3666V12.0606H63.2249V11.1328V11.0217H58.4332V12.0606H60.2916V17.8912H61.3666V17.7828H61.2554Z" fill="white"/>
<path d="M67.2723 11.1316H66.4195V17.7816H67.2723V11.1316Z" fill="white"/>
<path d="M66.4193 17.7828H66.5305V11.244H67.1638V17.6717H66.4193V17.7828H66.5305H66.4193V17.8912H67.3832V11.0217H66.4193H66.3082V17.8912H66.4193V17.7828Z" fill="white"/>
<path d="M71.0638 17.7816H70.2083V11.9483H68.3527V11.1316H72.9194V11.9483H71.0638V17.7816Z" fill="white"/>
<path d="M71.0639 17.7828V17.6717H70.3195V11.8384H68.4611V11.244H72.8112V11.8384H70.9528V17.7828H71.0639V17.6717V17.7828H71.175V12.0606H73.0306V11.1328V11.0217H68.2417V12.0606H70.0973V17.8912H71.175V17.7828H71.0639Z" fill="white"/>
<path d="M77.325 16.3321C77.8167 16.8293 78.4195 17.0793 79.1306 17.0793C79.8445 17.0793 80.4472 16.8293 80.9389 16.3321C81.4306 15.8348 81.6778 15.1987 81.6778 14.4237C81.6778 13.6487 81.4306 13.0126 80.9389 12.5154C80.4472 12.0182 79.8445 11.7682 79.1306 11.7682C78.4195 11.7682 77.8167 12.0182 77.325 12.5154C76.8333 13.0126 76.5861 13.6487 76.5861 14.4237C76.5861 15.1987 76.8333 15.8348 77.325 16.3321ZM81.5695 16.8876C80.9167 17.5626 80.1028 17.896 79.1306 17.896C78.1611 17.896 77.3472 17.5626 76.6945 16.8876C76.0417 16.2182 75.7167 15.396 75.7167 14.4237C75.7167 13.4515 76.0417 12.6293 76.6945 11.9598C77.3472 11.2848 78.1611 10.9487 79.1306 10.9487C80.0972 10.9487 80.9083 11.2876 81.5639 11.9626C82.2222 12.6376 82.55 13.4571 82.55 14.4237C82.55 15.396 82.2222 16.2182 81.5695 16.8876Z" fill="white"/>
<path d="M77.3252 16.3669L77.2474 16.4447C77.7557 16.9642 78.3946 17.2253 79.1307 17.2253C79.8696 17.2253 80.5085 16.9642 81.0168 16.4447C81.5307 15.9253 81.7891 15.2558 81.7891 14.4586C81.7891 13.6614 81.5307 12.9919 81.0168 12.4725C80.5085 11.953 79.8696 11.6919 79.1307 11.6919C78.3946 11.6919 77.7557 11.953 77.2474 12.4725C76.7335 12.9919 76.4752 13.6614 76.4779 14.4586C76.4752 15.2558 76.7335 15.9253 77.2474 16.4447L77.3252 16.3669L77.4029 16.2891C76.9335 15.8114 76.7002 15.2086 76.6974 14.4586C76.7002 13.7086 76.9335 13.1058 77.4029 12.628C77.8779 12.1503 78.4446 11.9141 79.1307 11.9141C79.8168 11.9141 80.3863 12.1503 80.8585 12.628C81.3307 13.1058 81.5641 13.7086 81.5668 14.4586C81.5641 15.2086 81.3307 15.8114 80.8585 16.2891C80.3863 16.7669 79.8168 17.003 79.1307 17.003C78.4446 17.003 77.8779 16.7669 77.4029 16.2891L77.3252 16.3669ZM81.5696 16.9225L81.4891 16.8447C80.8557 17.4975 80.0779 17.8197 79.1307 17.8197C78.1863 17.8197 77.4085 17.4975 76.7724 16.8447H76.7696H76.7724C76.1391 16.1919 75.828 15.4058 75.8252 14.4586C75.828 13.5114 76.1391 12.7225 76.7724 12.0697C77.4085 11.4197 78.1863 11.0975 79.1307 11.0947C80.0724 11.0975 80.8474 11.4197 81.4863 12.0753C82.1224 12.7308 82.4363 13.5169 82.439 14.4586C82.4363 15.4058 82.1224 16.1919 81.4891 16.8447L81.6502 17.0003C82.3224 16.3114 82.6613 15.4558 82.6613 14.4586C82.6613 13.4669 82.3196 12.6141 81.6446 11.9197C80.9696 11.2253 80.1224 10.8725 79.1307 10.8753C78.1335 10.8725 77.2863 11.2225 76.6141 11.9169C75.9418 12.6058 75.603 13.4614 75.6057 14.4586C75.603 15.4558 75.9418 16.3114 76.6141 17.0003L76.6196 17.003L76.6141 17.0003C77.2863 17.6947 78.1335 18.0419 79.1307 18.0419C80.1279 18.0419 80.9779 17.6947 81.6502 17.0003L81.5696 16.9225Z" fill="white"/>
<path d="M83.7473 17.7816V11.1316H84.789L88.0195 16.3038H88.0556L88.0195 15.0233V11.1316H88.8751V17.7816H87.9834L84.6029 12.3594H84.564L84.6029 13.6399V17.7816H83.7473Z" fill="white"/>
<path d="M83.7471 17.7828H83.8582V11.244H84.7277L87.9582 16.4162H88.1693L88.1304 15.0217V11.244H88.7638V17.6717H88.0443L84.6638 12.2495H84.5638H84.4499L84.4915 13.644V17.6717H83.7471V17.7828H83.8582H83.7471V17.8912H84.711V13.6384L84.6749 12.3551L84.5638 12.3606V12.4689H84.6027V12.3606L84.5082 12.419L87.9221 17.8912H88.986V11.0217H88.0193H87.9082V15.0245L87.9443 16.3078L88.0554 16.3051V16.1939H88.0193V16.3051L88.1138 16.2467L84.8499 11.0217H83.7471H83.636V17.8912H83.7471V17.7828Z" fill="white"/>
<path d="M118.5 36.6202H120.569V22.7646H118.5V36.6202ZM137.125 27.7563L134.756 33.7619H134.683L132.225 27.7563H129.997L133.686 36.1508L131.583 40.8202H133.739L139.425 27.7563H137.125ZM125.4 35.0452C124.722 35.0452 123.778 34.7063 123.778 33.8702C123.778 32.8008 124.953 32.3897 125.969 32.3897C126.878 32.3897 127.306 32.5869 127.858 32.8535C127.697 34.1369 126.592 35.0452 125.4 35.0452ZM125.647 27.4535C124.15 27.4535 122.6 28.1119 121.958 29.573L123.794 30.3397C124.186 29.573 124.917 29.3258 125.683 29.3258C126.753 29.3258 127.842 29.9674 127.858 31.1063V31.2508C127.483 31.0369 126.683 30.7147 125.703 30.7147C123.725 30.7147 121.708 31.8008 121.708 33.8341C121.708 35.6869 123.331 36.8813 125.15 36.8813C126.539 36.8813 127.306 36.2563 127.786 35.5258H127.858V36.5952H129.853V31.2841C129.853 28.8258 128.019 27.4535 125.647 27.4535ZM112.869 29.4424H109.928V24.6924H112.869C114.414 24.6924 115.292 25.973 115.292 27.0674C115.292 28.1424 114.414 29.4424 112.869 29.4424ZM112.817 22.7646H107.861V36.6202H109.928V31.3702H112.817C115.108 31.3702 117.361 29.7119 117.361 27.0674C117.361 24.4258 115.108 22.7646 112.817 22.7646ZM85.7972 35.048C84.3694 35.048 83.1722 33.8508 83.1722 32.2091C83.1722 30.548 84.3694 29.3369 85.7972 29.3369C87.2083 29.3369 88.3139 30.548 88.3139 32.2091C88.3139 33.8508 87.2083 35.048 85.7972 35.048ZM88.1722 28.5313H88.1C87.6361 27.9785 86.7444 27.4785 85.6194 27.4785C83.2639 27.4785 81.1028 29.5508 81.1028 32.2091C81.1028 34.8535 83.2639 36.9035 85.6194 36.9035C86.7444 36.9035 87.6361 36.4035 88.1 35.8341H88.1722V36.5119C88.1722 38.3147 87.2083 39.2785 85.6555 39.2785C84.3889 39.2785 83.6028 38.3674 83.2805 37.6008L81.4778 38.3508C81.9944 39.6008 83.3694 41.1369 85.6555 41.1369C88.0833 41.1369 90.1361 39.7091 90.1361 36.2258V27.7647H88.1722V28.5313ZM91.5639 36.6202H93.6361V22.7646H91.5639V36.6202ZM96.6889 32.048C96.6333 30.2285 98.1 29.298 99.1528 29.298C99.975 29.298 100.669 29.7091 100.9 30.3008L96.6889 32.048ZM103.117 30.4785C102.722 29.4258 101.525 27.4785 99.0805 27.4785C96.6528 27.4785 94.6361 29.3897 94.6361 32.1924C94.6361 34.8341 96.6333 36.9035 99.3111 36.9035C101.472 36.9035 102.722 35.5841 103.242 34.8147L101.633 33.7452C101.097 34.5313 100.367 35.048 99.3111 35.048C98.2583 35.048 97.5083 34.5674 97.0278 33.6202L103.331 31.0147L103.117 30.4785ZM52.9055 28.9258V30.923H57.6916C57.5472 32.048 57.175 32.8702 56.6028 33.4424C55.9055 34.1369 54.8166 34.9063 52.9055 34.9063C49.9611 34.9063 47.6583 32.5313 47.6583 29.5841C47.6583 26.6396 49.9611 24.2646 52.9055 24.2646C54.4944 24.2646 55.6555 24.8896 56.5139 25.6924L57.9222 24.2813C56.7278 23.1396 55.1389 22.2646 52.9055 22.2646C48.8722 22.2646 45.4805 25.5508 45.4805 29.5841C45.4805 33.6202 48.8722 36.9035 52.9055 36.9035C55.0861 36.9035 56.7278 36.1897 58.0139 34.8535C59.3333 33.5313 59.7444 31.673 59.7444 30.1758C59.7444 29.7091 59.7083 29.2813 59.6361 28.9258H52.9055ZM65.1833 35.048C63.7555 35.048 62.525 33.8702 62.525 32.1924C62.525 30.4952 63.7555 29.3369 65.1833 29.3369C66.6111 29.3369 67.8416 30.4952 67.8416 32.1924C67.8416 33.8702 66.6111 35.048 65.1833 35.048ZM65.1833 27.4785C62.5778 27.4785 60.4528 29.4591 60.4528 32.1924C60.4528 34.9063 62.5778 36.9035 65.1833 36.9035C67.7889 36.9035 69.9139 34.9063 69.9139 32.1924C69.9139 29.4591 67.7889 27.4785 65.1833 27.4785ZM75.5028 35.048C74.075 35.048 72.8444 33.8702 72.8444 32.1924C72.8444 30.4952 74.075 29.3369 75.5028 29.3369C76.9333 29.3369 78.1639 30.4952 78.1639 32.1924C78.1639 33.8702 76.9333 35.048 75.5028 35.048ZM75.5028 27.4785C72.8972 27.4785 70.7722 29.4591 70.7722 32.1924C70.7722 34.9063 72.8972 36.9035 75.5028 36.9035C78.1111 36.9035 80.2361 34.9063 80.2361 32.1924C80.2361 29.4591 78.1111 27.4785 75.5028 27.4785Z" fill="white"/>
<path fill-rule="evenodd" clip-rule="evenodd" d="M11.6446 39.2493L11.564 39.1716C11.2418 38.8299 11.0501 38.2993 11.0501 37.6132V37.7743V13.266C11.0501 13.266 11.0501 13.2632 11.0501 13.2605V13.4299C11.0501 12.6855 11.2723 12.1271 11.6446 11.791L25.3751 25.5188L11.6446 39.2493ZM11.0501 13.2605C11.0501 13.1993 11.0529 13.1382 11.0557 13.0799C11.0529 13.1382 11.0501 13.1993 11.0501 13.2605ZM11.0557 13.0771C11.0557 13.0771 11.0557 13.0771 11.0557 13.0743C11.0557 13.0771 11.0557 13.0771 11.0557 13.0771Z" fill="url(#paint0_linear)"/>
<path fill-rule="evenodd" clip-rule="evenodd" d="M29.95 30.263L30.0528 30.2046L35.475 27.1241C35.9944 26.8296 36.3389 26.4741 36.5111 26.0963C36.3389 26.4741 35.9944 26.8296 35.475 27.1241L30.0528 30.2046L29.95 30.263ZM29.95 30.0991L25.375 25.5213L29.95 20.9463L35.475 24.0852C36.1778 24.4824 36.5722 24.9963 36.6389 25.5213V25.5241C36.5722 26.0491 36.1778 26.563 35.475 26.9602L29.95 30.0991Z" fill="url(#paint1_linear)"/>
<path fill-rule="evenodd" clip-rule="evenodd" d="M12.625 39.7767C12.2416 39.7767 11.9083 39.6517 11.6444 39.4184V39.4156C11.9083 39.6517 12.2416 39.7767 12.625 39.7767C12.6583 39.7767 12.6916 39.7767 12.7277 39.7739C12.6916 39.7767 12.6583 39.7767 12.625 39.7767ZM12.625 39.6156C12.2416 39.6156 11.9083 39.4906 11.6444 39.2545L25.375 25.5239L29.95 30.1017L13.8666 39.2434C13.4222 39.4961 13 39.6156 12.625 39.6156ZM11.6416 39.4128C11.6166 39.3906 11.5944 39.3684 11.5694 39.3434L11.6416 39.4128Z" fill="url(#paint2_linear)"/>
<path fill-rule="evenodd" clip-rule="evenodd" d="M25.3749 25.5283L11.6443 11.8005C11.9055 11.5672 12.2388 11.4394 12.6221 11.4394C12.9971 11.4394 13.4193 11.5617 13.8666 11.8144L29.9499 20.9533L25.3749 25.5283ZM30.0527 20.8505L13.8666 11.6533C13.4193 11.3978 12.9971 11.2783 12.6221 11.2783H12.6193C12.6193 11.2783 12.6221 11.2783 12.6249 11.2783C12.9999 11.2783 13.4193 11.3978 13.8666 11.6505L30.0527 20.8478V20.8505Z" fill="url(#paint3_linear)"/>
<path d="M12.7279 39.7564C13.0751 39.7369 13.4612 39.6175 13.8667 39.3869L29.9501 30.248L13.8667 39.3869C13.4612 39.6175 13.0751 39.7369 12.7279 39.7564ZM11.6445 39.4008L11.6417 39.3953C11.6445 39.3981 11.6445 39.3981 11.6445 39.4008ZM11.5695 39.3258L11.564 39.3203C11.5667 39.3231 11.5667 39.3231 11.5695 39.3258Z" fill="black"/>
<path fill-rule="evenodd" clip-rule="evenodd" d="M29.9501 30.2698L30.0529 30.2114L29.9501 30.2698Z" fill="url(#paint4_linear)"/>
<path fill-rule="evenodd" clip-rule="evenodd" d="M12.6251 39.7766C12.2417 39.7766 11.9084 39.6516 11.6445 39.4154V39.4182C11.6445 39.4154 11.6445 39.4154 11.6417 39.4127L11.5695 39.3432C11.5667 39.3404 11.5667 39.3404 11.564 39.3377L11.6445 39.2543C11.9084 39.4904 12.2417 39.6154 12.6251 39.6154C13.0001 39.6154 13.4223 39.496 13.8667 39.2432L29.9501 30.1016L30.0529 30.2071L29.9501 30.2655L13.8667 39.4043C13.4612 39.6349 13.0751 39.7543 12.7279 39.7738C12.6917 39.7766 12.6584 39.7766 12.6251 39.7766Z" fill="url(#paint5_linear)"/>
<path d="M11.564 39.3503C11.2418 39.0087 11.0501 38.4781 11.0501 37.792C11.0501 38.4781 11.2418 39.0087 11.564 39.3475V39.3503Z" fill="black"/>
<path fill-rule="evenodd" clip-rule="evenodd" d="M11.564 39.3256C11.2418 38.9867 11.0501 38.4561 11.0501 37.77V37.6089C11.0501 38.295 11.2418 38.8256 11.564 39.1672L11.6446 39.245L11.564 39.3256Z" fill="url(#paint6_linear)"/>
<path fill-rule="evenodd" clip-rule="evenodd" d="M11.564 39.3402V39.3374L11.6445 39.2568L11.564 39.3402Z" fill="url(#paint7_linear)"/>
<path d="M36.5112 26.0961C36.5946 25.91 36.639 25.7156 36.639 25.5239C36.639 25.7156 36.5946 25.9073 36.5112 26.0961Z" fill="black"/>
<path fill-rule="evenodd" clip-rule="evenodd" d="M30.0529 30.2045L29.9501 30.0989L35.4751 26.96C36.1779 26.5628 36.5723 26.0489 36.639 25.5239C36.639 25.7156 36.5945 25.91 36.5112 26.0961C36.339 26.4739 35.9945 26.8295 35.4751 27.1239L30.0529 30.2045Z" fill="url(#paint8_linear)"/>
<path d="M36.6388 25.517C36.6388 24.9392 36.25 24.3586 35.475 23.9198L30.0527 20.8392V20.8364L35.475 23.9198C36.25 24.3586 36.6388 24.9392 36.6388 25.517Z" fill="#404040"/>
<path fill-rule="evenodd" clip-rule="evenodd" d="M36.639 25.5142C36.5723 24.9892 36.1779 24.4753 35.4751 24.0781L29.9501 20.9392L30.0529 20.8364L35.4751 23.917C36.2501 24.3559 36.639 24.9364 36.639 25.5142Z" fill="url(#paint9_linear)"/>
<path d="M11.0555 13.0894C11.0555 13.0894 11.0555 13.0894 11.0555 13.0867C11.0555 13.0894 11.0555 13.0894 11.0555 13.0894ZM11.0555 13.0839C11.0555 13.0839 11.0555 13.0811 11.0555 13.0783C11.0555 13.0811 11.0555 13.0839 11.0555 13.0839ZM11.0555 13.0783C11.1194 11.9394 11.7389 11.2839 12.6139 11.2783C12.2361 11.2811 11.9055 11.4061 11.6444 11.6394L11.6417 11.6422C11.6167 11.6672 11.5889 11.6922 11.5639 11.72C11.2722 12.0255 11.0889 12.4867 11.0555 13.0783Z" fill="#404040"/>
<path fill-rule="evenodd" clip-rule="evenodd" d="M11.0501 13.4445V13.2806C11.0501 13.2806 11.0501 13.2779 11.0501 13.2751C11.0501 13.214 11.0529 13.1529 11.0557 13.0945C11.0557 13.0945 11.0557 13.0945 11.0557 13.0918C11.0557 13.0918 11.0557 13.0918 11.0557 13.089C11.0557 13.089 11.0557 13.0862 11.0557 13.0834C11.089 12.4918 11.2723 12.0306 11.564 11.7251L11.6446 11.8056C11.2723 12.1418 11.0501 12.7001 11.0501 13.4445ZM11.6418 11.6473L11.6446 11.6445C11.6446 11.6445 11.6446 11.6473 11.6418 11.6473Z" fill="url(#paint10_linear)"/>
<path fill-rule="evenodd" clip-rule="evenodd" d="M29.9501 20.9533L13.8667 11.8144C13.4195 11.5617 12.9973 11.4394 12.6223 11.4394C12.239 11.4394 11.9056 11.5672 11.6445 11.8005L11.564 11.72C11.589 11.6922 11.6167 11.6672 11.6417 11.6422C11.6445 11.6422 11.6445 11.6394 11.6445 11.6394C11.9056 11.4061 12.2362 11.2811 12.614 11.2783H12.6223C12.9973 11.2783 13.4195 11.3978 13.8667 11.6533L30.0529 20.8505L29.9501 20.9533Z" fill="url(#paint11_linear)"/>
<defs>
<linearGradient id="paint0_linear" x1="24.1575" y1="13.0077" x2="5.56003" y2="-5.58982" gradientUnits="userSpaceOnUse">
<stop stop-color="#00A0FF"/>
<stop offset="1" stop-color="#00E2FF"/>
</linearGradient>
<linearGradient id="paint1_linear" x1="37.4936" y1="25.523" x2="10.6797" y2="25.523" gradientUnits="userSpaceOnUse">
<stop stop-color="#FFDF00"/>
<stop offset="1" stop-color="#FF9C00"/>
</linearGradient>
<linearGradient id="paint2_linear" x1="27.512" y1="28.0686" x2="2.2924" y2="2.84901" gradientUnits="userSpaceOnUse">
<stop stop-color="#FF3A44"/>
<stop offset="1" stop-color="#C31162"/>
</linearGradient>
<linearGradient id="paint3_linear" x1="8.0864" y1="3.56082" x2="19.348" y2="-7.70074" gradientUnits="userSpaceOnUse">
<stop stop-color="#31A070"/>
<stop offset="1" stop-color="#00EF75"/>
</linearGradient>
<linearGradient id="paint4_linear" x1="37.4939" y1="25.5298" x2="10.6792" y2="25.5298" gradientUnits="userSpaceOnUse">
<stop stop-color="#CCB300"/>
<stop offset="1" stop-color="#CC7C00"/>
</linearGradient>
<linearGradient id="paint5_linear" x1="27.5121" y1="28.0684" x2="2.29253" y2="2.84887" gradientUnits="userSpaceOnUse">
<stop stop-color="#CC2D36"/>
<stop offset="1" stop-color="#9C0E4D"/>
</linearGradient>
<linearGradient id="paint6_linear" x1="24.1575" y1="13.0032" x2="5.55991" y2="-5.59425" gradientUnits="userSpaceOnUse">
<stop stop-color="#008CDF"/>
<stop offset="1" stop-color="#00C6DF"/>
</linearGradient>
<linearGradient id="paint7_linear" x1="27.512" y1="28.0706" x2="2.29163" y2="2.85121" gradientUnits="userSpaceOnUse">
<stop stop-color="#DF333B"/>
<stop offset="1" stop-color="#AA0E56"/>
</linearGradient>
<linearGradient id="paint8_linear" x1="37.4937" y1="25.5229" x2="10.6798" y2="25.5229" gradientUnits="userSpaceOnUse">
<stop stop-color="#DFC400"/>
<stop offset="1" stop-color="#DF8900"/>
</linearGradient>
<linearGradient id="paint9_linear" x1="37.4937" y1="25.516" x2="10.6798" y2="25.516" gradientUnits="userSpaceOnUse">
<stop stop-color="#FFE83F"/>
<stop offset="1" stop-color="#FFB53F"/>
</linearGradient>
<linearGradient id="paint10_linear" x1="24.1575" y1="13.0223" x2="5.56001" y2="-5.57516" gradientUnits="userSpaceOnUse">
<stop stop-color="#3FB8FF"/>
<stop offset="1" stop-color="#3FE9FF"/>
</linearGradient>
<linearGradient id="paint11_linear" x1="8.08658" y1="3.56082" x2="19.3481" y2="-7.70074" gradientUnits="userSpaceOnUse">
<stop stop-color="#64B895"/>
<stop offset="1" stop-color="#3FF497"/>
</linearGradient>
</defs>
</svg>
